<svg width="19" height="19" viewBox="0 0 19 19" fill="none" xmlns="http://www.w3.org/2000/svg">
<g opacity="0.4">
<path d="M11.4148 4.22357C11.0379 4.15591 10.6918 4.38963 10.6201 4.74712C10.5483 5.10462 10.7896 5.45365 11.1562 5.52362C12.26 5.73273 13.1123 6.56304 13.3283 7.63936V7.64013C13.3898 7.94996 13.6705 8.17522 13.9937 8.17522C14.0371 8.17522 14.0804 8.17137 14.1246 8.16369C14.4912 8.09219 14.7325 7.74392 14.6607 7.38566C14.3383 5.77809 13.065 4.53647 11.4148 4.22357Z" fill="#464131"/>
<path d="M11.3652 1.5448C11.1886 1.5202 11.0112 1.57094 10.8701 1.68011C10.725 1.79081 10.6343 1.95073 10.6146 2.12986C10.5728 2.49196 10.8417 2.81947 11.2138 2.86022C13.7801 3.13853 15.7749 5.08129 16.0634 7.58298C16.102 7.91818 16.3914 8.17111 16.7367 8.17111C16.7627 8.17111 16.788 8.16957 16.814 8.1665C16.9945 8.14728 17.1554 8.0604 17.2689 7.92202C17.3817 7.78364 17.4329 7.61142 17.4124 7.43537C17.0529 4.31403 14.567 1.89153 11.3652 1.5448Z" fill="#464131"/>
</g>
<path fill-rule="evenodd" clip-rule="evenodd" d="M8.73314 9.98005C11.8912 13.0481 12.6076 9.49871 14.6183 11.4513C16.5568 13.3346 17.671 13.7119 15.2149 16.098C14.9073 16.3383 12.9526 19.2289 6.08332 12.5552C-0.786829 5.88076 2.18593 3.97931 2.43323 3.68043C4.89524 1.28773 5.27682 2.37675 7.21531 4.26003C9.22605 6.21349 5.57511 6.91198 8.73314 9.98005Z" fill="#464131"/>
</svg>
