<svg width="20" height="20" viewBox="0 0 20 20" fill="none" xmlns="http://www.w3.org/2000/svg">
    <circle cx="10" cy="10" r="10" fill="url(#paint0_linear)"/>
    <path d="M4.5459 9.99995C4.5459 11.0787 4.8658 12.1333 5.46515 13.0303C6.06451 13.9273 6.91639 14.6264 7.91308 15.0393C8.90975 15.4521 10.0065 15.5601 11.0646 15.3497C12.1226 15.1392 13.0945 14.6197 13.8574 13.8569C14.6202 13.094 15.1397 12.1221 15.3502 11.0641C15.5606 10.006 15.4526 8.90926 15.0398 7.91259C14.6269 6.9159 13.9278 6.06402 13.0308 5.46466C12.1338 4.86531 11.0792 4.54541 10.0004 4.54541C9.28415 4.54541 8.57485 4.6865 7.91308 4.96061C7.2513 5.23473 6.65 5.63651 6.14349 6.14301C5.12057 7.16593 4.5459 8.55332 4.5459 9.99995ZM9.45498 7.27268C9.45498 7.12801 9.51247 6.98928 9.61475 6.88698C9.71702 6.78469 9.85578 6.72723 10.0004 6.72723C10.1451 6.72723 10.2839 6.78469 10.3861 6.88698C10.4884 6.98928 10.5459 7.12801 10.5459 7.27268V9.45449L12.1823 9.4545C12.3269 9.4545 12.4657 9.51199 12.568 9.61426C12.6702 9.71654 12.7277 9.8553 12.7277 9.99995C12.7277 10.1446 12.6702 10.2834 12.568 10.3856C12.4657 10.4879 12.3269 10.5454 12.1823 10.5454L10.0004 10.5454C9.92882 10.5454 9.85785 10.5313 9.79169 10.5039C9.72547 10.4765 9.66536 10.4363 9.61469 10.3857C9.56407 10.335 9.52387 10.2749 9.49649 10.2087C9.46906 10.1425 9.45498 10.0716 9.45498 9.99995V7.27268Z" fill="white"/>
    <defs>
        <linearGradient id="paint0_linear" x1="10" y1="0" x2="10" y2="20" gradientUnits="userSpaceOnUse">
            <stop offset="0.0001" stop-color="#0070CB"/>
            <stop offset="0.583152" stop-color="#0D91D8"/>
            <stop offset="1" stop-color="#43A7E0"/>
        </linearGradient>
    </defs>
</svg>
