<svg width="18" height="18" viewBox="0 0 18 18" fill="none" xmlns="http://www.w3.org/2000/svg">
    <circle cx="9" cy="9" r="9" fill="#181200"/>
    <path d="M4.09082 8.99991C4.09082 9.97082 4.37873 10.9199 4.91815 11.7272C5.45757 12.5345 6.22426 13.1637 7.12128 13.5353C8.01828 13.9069 9.00535 14.0041 9.95762 13.8147C10.9099 13.6252 11.7846 13.1577 12.4712 12.4712C13.1577 11.7846 13.6252 10.9099 13.8147 9.95762C14.0041 9.00535 13.9069 8.01828 13.5353 7.12128C13.1637 6.22426 12.5345 5.45757 11.7272 4.91815C10.9199 4.37873 9.97082 4.09082 8.99991 4.09082C8.35524 4.09082 7.71688 4.2178 7.12128 4.4645C6.52568 4.71121 5.98451 5.07281 5.52866 5.52866C4.60803 6.44929 4.09082 7.69794 4.09082 8.99991ZM8.509 6.54536C8.509 6.41516 8.56074 6.2903 8.65278 6.19824C8.74483 6.10618 8.86972 6.05445 8.99991 6.05445C9.13009 6.05445 9.25498 6.10618 9.34703 6.19824C9.43907 6.2903 9.49081 6.41516 9.49081 6.54536V8.509L10.9635 8.509C11.0937 8.509 11.2186 8.56074 11.3107 8.65279C11.4027 8.74483 11.4545 8.86972 11.4545 8.99991C11.4545 9.1301 11.4027 9.25499 11.3107 9.34703C11.2186 9.43908 11.0937 9.49082 10.9635 9.49082L8.99991 9.49081C8.93545 9.49081 8.87158 9.47815 8.81203 9.45345C8.75244 9.42881 8.69834 9.39263 8.65273 9.34708C8.60718 9.30147 8.571 9.24737 8.54635 9.18778C8.52166 9.12823 8.509 9.06436 8.509 8.99991V6.54536Z" fill="#FFFDF3"/>
</svg>
