<svg width="18" height="18" viewBox="0 0 18 18" fill="none" xmlns="http://www.w3.org/2000/svg">
    <path fill-rule="evenodd" clip-rule="evenodd" d="M9 0C4.02944 0 0 4.02944 0 9C0 13.9706 4.02944 18 9 18C13.9706 18 18 13.9706 18 9C18 4.02944 13.9706 0 9 0ZM7.02126 4.22888C7.53327 4.20558 7.69687 4.19988 9.00048 4.19988H8.99898C10.303 4.19988 10.466 4.20558 10.978 4.22888C11.489 4.25228 11.838 4.33318 12.144 4.45188C12.46 4.57438 12.727 4.73838 12.994 5.00539C13.261 5.27219 13.425 5.53999 13.548 5.8557C13.666 6.1609 13.747 6.5097 13.771 7.02071C13.794 7.53271 13.8 7.69632 13.8 8.99993C13.8 10.3035 13.794 10.4667 13.771 10.9788C13.747 11.4896 13.666 11.8385 13.548 12.1438C13.425 12.4594 13.261 12.7272 12.994 12.994C12.7273 13.261 12.4599 13.4254 12.1443 13.548C11.8389 13.6667 11.4897 13.7476 10.9787 13.771C10.4667 13.7943 10.3036 13.8 8.99988 13.8C7.69637 13.8 7.53287 13.7943 7.02086 13.771C6.50995 13.7476 6.16105 13.6667 5.85565 13.548C5.54014 13.4254 5.27234 13.261 5.00564 12.994C4.73874 12.7272 4.57473 12.4594 4.45203 12.1437C4.33343 11.8385 4.25253 11.4897 4.22903 10.9787C4.20583 10.4666 4.20003 10.3035 4.20003 8.99993C4.20003 7.69632 4.20603 7.53261 4.22893 7.02061C4.25193 6.5098 4.33293 6.1609 4.45193 5.8556C4.57493 5.53999 4.73894 5.27219 5.00594 5.00539C5.27274 4.73848 5.54054 4.57448 5.85625 4.45188C6.16145 4.33318 6.51025 4.25228 7.02126 4.22888Z" fill="#181200"/>
    <path fill-rule="evenodd" clip-rule="evenodd" d="M8.56987 5.06516C8.65348 5.06503 8.74342 5.06507 8.84049 5.06512L9.00047 5.06516C10.2821 5.06516 10.434 5.06976 10.9401 5.09277C11.4081 5.11417 11.6621 5.19237 11.8313 5.25807C12.0553 5.34507 12.215 5.44907 12.3829 5.61707C12.5509 5.78507 12.6549 5.94507 12.7421 6.16908C12.8078 6.33808 12.8861 6.59208 12.9074 7.06009C12.9304 7.56609 12.9354 7.71809 12.9354 8.99911C12.9354 10.2801 12.9304 10.4321 12.9074 10.9381C12.886 11.4061 12.8078 11.6601 12.7421 11.8291C12.6551 12.0531 12.5509 12.2126 12.3829 12.3805C12.2149 12.5485 12.0554 12.6525 11.8313 12.7395C11.6623 12.8055 11.4081 12.8835 10.9401 12.9049C10.4341 12.9279 10.2821 12.9329 9.00047 12.9329C7.71876 12.9329 7.56686 12.9279 7.06085 12.9049C6.59285 12.8833 6.33884 12.8051 6.16954 12.7394C5.94554 12.6524 5.78554 12.5484 5.61754 12.3804C5.44953 12.2124 5.34553 12.0528 5.25833 11.8287C5.19263 11.6597 5.11433 11.4057 5.09303 10.9377C5.07003 10.4317 5.06543 10.2797 5.06543 8.99791C5.06543 7.71609 5.07003 7.56489 5.09303 7.05889C5.11443 6.59088 5.19263 6.33688 5.25833 6.16768C5.34533 5.94367 5.44953 5.78367 5.61754 5.61567C5.78554 5.44767 5.94554 5.34367 6.16954 5.25647C6.33874 5.19047 6.59285 5.11247 7.06085 5.09097C7.50366 5.07096 7.67526 5.06496 8.56987 5.06396V5.06516ZM11.5627 5.86223C11.2447 5.86223 10.9867 6.11993 10.9867 6.43804C10.9867 6.75604 11.2447 7.01404 11.5627 7.01404C11.8807 7.01404 12.1387 6.75604 12.1387 6.43804C12.1387 6.12003 11.8807 5.86203 11.5627 5.86203V5.86223ZM6.53552 9.00014C6.53552 7.63886 7.63918 6.53517 9.00045 6.53512C10.3618 6.53512 11.4652 7.63883 11.4652 9.00014C11.4652 10.3615 10.3619 11.4647 9.00055 11.4647C7.63923 11.4647 6.53552 10.3615 6.53552 9.00014Z" fill="#181200"/>
    <path d="M9.00041 7.3999C9.88402 7.3999 10.6004 8.11621 10.6004 8.99992C10.6004 9.88353 9.88402 10.5999 9.00041 10.5999C8.1167 10.5999 7.40039 9.88353 7.40039 8.99992C7.40039 8.11621 8.1167 7.3999 9.00041 7.3999Z" fill="#181200"/>
</svg>
