<svg width="15" height="15" viewBox="0 0 15 15" fill="none" xmlns="http://www.w3.org/2000/svg">
<path d="M10.9396 0H4.06036C1.82144 0 0 1.82144 0 4.06036V10.9397C0 13.1785 1.82144 15 4.06036 15H10.9397C13.1785 15 15 13.1785 15 10.9397V4.06036C15 1.82144 13.1785 0 10.9396 0V0ZM7.49999 11.6014C5.23841 11.6014 3.39855 9.76156 3.39855 7.49999C3.39855 5.23841 5.23841 3.39855 7.49999 3.39855C9.76156 3.39855 11.6014 5.23841 11.6014 7.49999C11.6014 9.76156 9.76156 11.6014 7.49999 11.6014ZM11.6995 4.3658C11.0312 4.3658 10.4876 3.8222 10.4876 3.15387C10.4876 2.48554 11.0312 1.94183 11.6995 1.94183C12.3678 1.94183 12.9115 2.48554 12.9115 3.15387C12.9115 3.8222 12.3678 4.3658 11.6995 4.3658Z" fill="#464131"/>
<path opacity="0.4" d="M7.5004 4.27795C5.72382 4.27795 4.27832 5.72334 4.27832 7.50003C4.27832 9.27661 5.72382 10.7221 7.5004 10.7221C9.27709 10.7221 10.7225 9.27661 10.7225 7.50003C10.7225 5.72334 9.27709 4.27795 7.5004 4.27795Z" fill="#464131"/>
<path opacity="0.4" d="M11.6998 2.82166C11.5164 2.82166 11.3672 2.97089 11.3672 3.15422C11.3672 3.33755 11.5164 3.48678 11.6998 3.48678C11.8832 3.48678 12.0324 3.33767 12.0324 3.15422C12.0324 2.97077 11.8832 2.82166 11.6998 2.82166Z" fill="#464131"/>
</svg>
