<svg width="20" height="20" viewBox="0 0 20 20" fill="none" xmlns="http://www.w3.org/2000/svg">
    <path fill-rule="evenodd" clip-rule="evenodd" d="M10 0C4.47715 0 0 4.47715 0 10C0 15.5228 4.47715 20 10 20C15.5228 20 20 15.5228 20 10C20 4.47715 15.5228 0 10 0ZM7.80142 4.69873C8.37031 4.67285 8.55209 4.66651 10.0006 4.66651H9.99889C11.4478 4.66651 11.6289 4.67285 12.1978 4.69873C12.7656 4.72473 13.1534 4.81462 13.4934 4.94652C13.8445 5.08263 14.1412 5.26485 14.4378 5.56152C14.7345 5.85797 14.9167 6.15553 15.0534 6.50631C15.1845 6.84542 15.2745 7.23298 15.3012 7.80077C15.3267 8.36966 15.3334 8.55144 15.3334 9.9999C15.3334 11.4484 15.3267 11.6297 15.3012 12.1986C15.2745 12.7662 15.1845 13.1538 15.0534 13.493C14.9167 13.8437 14.7345 14.1413 14.4378 14.4377C14.1415 14.7344 13.8444 14.9171 13.4937 15.0533C13.1544 15.1852 12.7664 15.2751 12.1986 15.3011C11.6297 15.327 11.4485 15.3333 9.99989 15.3333C8.55154 15.3333 8.36987 15.327 7.80097 15.3011C7.2333 15.2751 6.84563 15.1852 6.50629 15.0533C6.15573 14.9171 5.85818 14.7344 5.56184 14.4377C5.26528 14.1413 5.08306 13.8437 4.94672 13.4929C4.81494 13.1538 4.72505 12.7663 4.69894 12.1985C4.67316 11.6296 4.66672 11.4484 4.66672 9.9999C4.66672 8.55144 4.67339 8.36955 4.69883 7.80066C4.72439 7.23309 4.81439 6.84542 4.94661 6.5062C5.08328 6.15553 5.2655 5.85797 5.56217 5.56152C5.85862 5.26496 6.15618 5.08274 6.50696 4.94652C6.84607 4.81462 7.23363 4.72473 7.80142 4.69873Z" fill="url(#paint0_linear)"/>
    <path fill-rule="evenodd" clip-rule="evenodd" d="M9.52175 5.6278C9.61465 5.62765 9.71459 5.6277 9.82244 5.62775L10.0002 5.6278C11.4242 5.6278 11.593 5.63291 12.1553 5.65847C12.6753 5.68224 12.9576 5.76913 13.1456 5.84213C13.3945 5.9388 13.5719 6.05436 13.7585 6.24103C13.9451 6.4277 14.0607 6.60547 14.1576 6.85437C14.2306 7.04215 14.3176 7.32437 14.3412 7.84438C14.3668 8.4066 14.3724 8.5755 14.3724 9.99884C14.3724 11.4222 14.3668 11.5911 14.3412 12.1533C14.3175 12.6733 14.2306 12.9555 14.1576 13.1433C14.0609 13.3922 13.9451 13.5694 13.7585 13.756C13.5718 13.9427 13.3946 14.0582 13.1456 14.1549C12.9578 14.2282 12.6753 14.3149 12.1553 14.3387C11.5931 14.3642 11.4242 14.3698 10.0002 14.3698C8.57607 14.3698 8.40729 14.3642 7.84506 14.3387C7.32506 14.3147 7.04283 14.2278 6.85472 14.1548C6.60583 14.0581 6.42805 13.9425 6.24138 13.7559C6.05471 13.5692 5.93916 13.3919 5.84227 13.1429C5.76926 12.9551 5.68226 12.6729 5.6586 12.1529C5.63304 11.5906 5.62793 11.4217 5.62793 9.99751C5.62793 8.57327 5.63304 8.40527 5.6586 7.84304C5.68237 7.32304 5.76926 7.04081 5.84227 6.85281C5.93893 6.60392 6.05471 6.42614 6.24138 6.23947C6.42805 6.0528 6.60583 5.93725 6.85472 5.84036C7.04272 5.76702 7.32506 5.68035 7.84506 5.65647C8.33707 5.63424 8.52774 5.62758 9.52175 5.62646V5.6278ZM12.8471 6.5134C12.4938 6.5134 12.2071 6.79974 12.2071 7.15319C12.2071 7.50652 12.4938 7.79319 12.8471 7.79319C13.2005 7.79319 13.4871 7.50652 13.4871 7.15319C13.4871 6.79985 13.2005 6.51318 12.8471 6.51318V6.5134ZM7.26138 10C7.26138 8.48747 8.48766 7.26114 10.0002 7.26108C11.5128 7.26108 12.7388 8.48743 12.7388 10C12.7388 11.5126 11.5129 12.7384 10.0003 12.7384C8.48772 12.7384 7.26138 11.5126 7.26138 10Z" fill="url(#paint1_linear)"/>
    <path d="M10.0005 8.22217C10.9822 8.22217 11.7783 9.01807 11.7783 9.99996C11.7783 10.9818 10.9822 11.7778 10.0005 11.7778C9.01855 11.7778 8.22266 10.9818 8.22266 9.99996C8.22266 9.01807 9.01855 8.22217 10.0005 8.22217Z" fill="url(#paint2_linear)"/>
    <defs>
        <linearGradient id="paint0_linear" x1="10" y1="0" x2="10" y2="20" gradientUnits="userSpaceOnUse">
            <stop offset="0.0001" stop-color="#0070CB"/>
            <stop offset="0.583152" stop-color="#0D91D8"/>
            <stop offset="1" stop-color="#43A7E0"/>
        </linearGradient>
        <linearGradient id="paint1_linear" x1="10.0001" y1="5.62646" x2="10.0001" y2="14.3698" gradientUnits="userSpaceOnUse">
            <stop offset="0.0001" stop-color="#0070CB"/>
            <stop offset="0.583152" stop-color="#0D91D8"/>
            <stop offset="1" stop-color="#43A7E0"/>
        </linearGradient>
        <linearGradient id="paint2_linear" x1="10.0005" y1="8.22217" x2="10.0005" y2="11.7778" gradientUnits="userSpaceOnUse">
            <stop offset="0.0001" stop-color="#0070CB"/>
            <stop offset="0.583152" stop-color="#0D91D8"/>
            <stop offset="1" stop-color="#43A7E0"/>
        </linearGradient>
    </defs>
</svg>
