<svg width="32" height="32" viewBox="0 0 32 32" fill="none" xmlns="http://www.w3.org/2000/svg">
    <circle cx="16" cy="16" r="16" fill="#181200"/>
    <path opacity="0.4" d="M24.4166 19.2633C24.4166 21.4097 22.6433 23.1484 20.4345 23.1561H20.4266H12.5812C10.3803 23.1561 8.58325 21.4251 8.58325 19.2787V19.271C8.58325 19.271 8.588 15.8659 8.59434 14.1534C8.59513 13.8318 8.97513 13.6518 9.234 13.8518C11.115 15.302 14.4788 17.9462 14.5208 17.9808C15.0828 18.4186 15.7953 18.6655 16.5237 18.6655C17.252 18.6655 17.9645 18.4186 18.5266 17.9723C18.5685 17.9454 21.8571 15.3805 23.7666 13.9064C24.0263 13.7056 24.4079 13.8857 24.4087 14.2065C24.4166 15.9059 24.4166 19.2633 24.4166 19.2633Z" fill="#FFFDF3"/>
    <path d="M24.0019 11.3649C23.3164 10.1093 21.9674 9.30768 20.4822 9.30768H12.5814C11.0962 9.30768 9.74719 10.1093 9.06161 11.3649C8.90803 11.6457 8.98086 11.9957 9.23657 12.1942L15.1147 16.7633C15.5264 17.0864 16.0251 17.2472 16.5239 17.2472C16.527 17.2472 16.5294 17.2472 16.5318 17.2472C16.5342 17.2472 16.5373 17.2472 16.5397 17.2472C17.0384 17.2472 17.5372 17.0864 17.9489 16.7633L23.827 12.1942C24.0827 11.9957 24.1555 11.6457 24.0019 11.3649Z" fill="#FFFDF3"/>
</svg>
