<svg width="20" height="20" viewBox="0 0 20 20" fill="none" xmlns="http://www.w3.org/2000/svg">
    <path fill-rule="evenodd" clip-rule="evenodd" d="M10 20C4.47715 20 0 15.5228 0 10C0 4.47715 4.47715 0 10 0C15.5228 0 20 4.47715 20 10C20 15.5228 15.5228 20 10 20ZM10.1393 9.43881C10.9581 9.43881 14.9393 7.20005 14.9393 7.20005L14.9457 6.80005C14.9457 6.35845 14.5873 6.00005 14.1445 6.00005H6.13408C5.69168 6.00005 5.33328 6.35845 5.33328 6.80005V7.15645C5.33328 7.15645 9.35808 9.43881 10.1393 9.43881ZM5.33968 8.39997C5.33928 8.39997 9.35808 10.5387 10.1393 10.5387C10.9957 10.5387 14.9393 8.39997 14.9393 8.39997L14.9457 13.2C14.9457 13.6416 14.5873 14 14.1445 14H6.13408C5.69208 14 5.33328 13.6416 5.33328 13.2L5.33968 8.39997Z" fill="url(#paint0_linear)"/>
    <defs>
        <linearGradient id="paint0_linear" x1="10" y1="0" x2="10" y2="20" gradientUnits="userSpaceOnUse">
            <stop offset="0.0001" stop-color="#0070CB"/>
            <stop offset="0.583152" stop-color="#0D91D8"/>
            <stop offset="1" stop-color="#43A7E0"/>
        </linearGradient>
    </defs>
</svg>
