<svg width="19" height="20" viewBox="0 0 19 20" fill="none" xmlns="http://www.w3.org/2000/svg">
<path fill-rule="evenodd" clip-rule="evenodd" d="M6.75388 3.0128C8.48356 2.03614 10.6096 2.05321 12.3231 3.05752C14.0197 4.08228 15.0508 5.91118 15.0412 7.87857C15.0017 9.83305 13.896 11.6703 12.5139 13.0905C11.7162 13.9139 10.8238 14.6421 9.85501 15.26C9.75523 15.3161 9.64594 15.3536 9.53252 15.3707C9.42336 15.3662 9.31705 15.3349 9.22319 15.2795C7.7441 14.351 6.44648 13.1659 5.39277 11.781C4.51106 10.625 4.01013 9.22841 3.95801 7.78085C3.95686 5.80969 5.0242 3.98947 6.75388 3.0128ZM7.75339 8.59662C8.04434 9.29367 8.73111 9.74835 9.49303 9.74836C9.99218 9.75184 10.472 9.55755 10.8256 9.20877C11.1791 8.85999 11.3771 8.38571 11.3753 7.8916C11.378 7.13739 10.9211 6.45598 10.2179 6.16552C9.51477 5.87507 8.70409 6.03287 8.16439 6.56525C7.62469 7.09762 7.46244 7.89956 7.75339 8.59662Z" fill="#464131"/>
<ellipse opacity="0.4" cx="9.49935" cy="16.9093" rx="3.95833" ry="0.769331" fill="#464131"/>
</svg>
