<svg width="18" height="18" viewBox="0 0 18 18" fill="none" xmlns="http://www.w3.org/2000/svg">
    <path fill-rule="evenodd" clip-rule="evenodd" d="M9 18C4.02944 18 0 13.9706 0 9C0 4.02944 4.02944 0 9 0C13.9706 0 18 4.02944 18 9C18 13.9706 13.9706 18 9 18ZM9.12537 8.49492C9.86229 8.49492 13.4454 6.48004 13.4454 6.48004L13.4511 6.12004C13.4511 5.7226 13.1286 5.40004 12.7301 5.40004H5.52069C5.12253 5.40004 4.79997 5.7226 4.79997 6.12004V6.4408C4.79997 6.4408 8.42229 8.49492 9.12537 8.49492ZM4.80573 7.55996C4.80537 7.55996 8.42229 9.48484 9.12537 9.48484C9.89613 9.48484 13.4454 7.55996 13.4454 7.55996L13.4511 11.88C13.4511 12.2774 13.1286 12.6 12.7301 12.6H5.52069C5.12289 12.6 4.79997 12.2774 4.79997 11.88L4.80573 7.55996Z" fill="#181200"/>
</svg>
