<svg width="19" height="19" viewBox="0 0 19 19" fill="none" xmlns="http://www.w3.org/2000/svg">
<path opacity="0.4" d="M17.4163 12.3547C17.4163 14.5011 15.643 16.2398 13.4343 16.2475H13.4263H5.58093C3.38009 16.2475 1.58301 14.5165 1.58301 12.3701V12.3624C1.58301 12.3624 1.58776 8.95731 1.59409 7.24478C1.59488 6.9232 1.97488 6.74318 2.23376 6.94321C4.11476 8.39339 7.47855 11.0376 7.52051 11.0722C8.08259 11.51 8.79509 11.7569 9.52343 11.7569C10.2518 11.7569 10.9643 11.51 11.5263 11.0637C11.5683 11.0368 14.8569 8.47187 16.7664 6.99783C17.0261 6.79703 17.4076 6.97706 17.4084 7.29787C17.4163 8.99732 17.4163 12.3547 17.4163 12.3547Z" fill="#464131"/>
<path d="M17.0017 4.45624C16.3161 3.20069 14.9671 2.39905 13.482 2.39905H5.58112C4.09595 2.39905 2.74695 3.20069 2.06137 4.45624C1.90778 4.73705 1.98062 5.08709 2.23633 5.28558L8.11445 9.85464C8.52612 10.1778 9.02487 10.3385 9.52362 10.3385C9.52678 10.3385 9.52916 10.3385 9.53153 10.3385C9.53391 10.3385 9.53708 10.3385 9.53945 10.3385C10.0382 10.3385 10.537 10.1778 10.9486 9.85464L16.8267 5.28558C17.0824 5.08709 17.1553 4.73705 17.0017 4.45624Z" fill="#464131"/>
</svg>
