<svg width="20" height="20" viewBox="0 0 20 20" fill="none" xmlns="http://www.w3.org/2000/svg">
    <circle cx="10" cy="10" r="10" fill="url(#paint0_linear)"/>
    <path d="M11.2091 6.74497C10.9711 6.701 10.7525 6.8529 10.7072 7.08524C10.6618 7.31758 10.8142 7.54442 11.0458 7.58989C11.7429 7.7258 12.2812 8.26543 12.4176 8.96494C12.4564 9.16631 12.6337 9.31321 12.8379 9.31321C12.8653 9.31321 12.8926 9.31071 12.9205 9.30571C13.1521 9.25924 13.3044 9.0329 13.2591 8.80006C13.0555 7.75528 12.2513 6.94833 11.2091 6.74497Z" fill="white"/>
    <path d="M11.178 5.00396C11.0664 4.98798 10.9544 5.02095 10.8653 5.0919C10.7736 5.16386 10.7164 5.26778 10.7039 5.3842C10.6775 5.61954 10.8473 5.8324 11.0824 5.85888C12.7032 6.03975 13.963 7.30239 14.1452 8.92827C14.1696 9.14612 14.3524 9.31051 14.5705 9.31051C14.5869 9.31051 14.6028 9.30951 14.6193 9.30751C14.7333 9.29502 14.8349 9.23856 14.9066 9.14862C14.9778 9.05868 15.0102 8.94676 14.9972 8.83234C14.7701 6.80373 13.2001 5.22931 11.178 5.00396Z" fill="white"/>
    <path fill-rule="evenodd" clip-rule="evenodd" d="M9.51582 10.4862C11.5103 12.4802 11.9628 10.1734 13.2327 11.4424C14.457 12.6664 15.1607 12.9116 13.6095 14.4624C13.4152 14.6185 12.1807 16.4971 7.84227 12.1598C3.50328 7.822 5.38079 6.58622 5.53698 6.39197C7.09191 4.83692 7.33291 5.54469 8.55721 6.76866C9.82713 8.03825 7.5213 8.49221 9.51582 10.4862Z" fill="white"/>
    <defs>
        <linearGradient id="paint0_linear" x1="10" y1="0" x2="10" y2="20" gradientUnits="userSpaceOnUse">
            <stop offset="0.0001" stop-color="#0070CB"/>
            <stop offset="0.583152" stop-color="#0D91D8"/>
            <stop offset="1" stop-color="#43A7E0"/>
        </linearGradient>
    </defs>
</svg>
