<svg width="32" height="32" viewBox="0 0 32 32" fill="none" xmlns="http://www.w3.org/2000/svg">
    <circle cx="16" cy="16" r="16" fill="#181200"/>
    <g opacity="0.4">
        <path d="M17.4145 11.2236C17.0377 11.1559 16.6916 11.3896 16.6198 11.7471C16.5481 12.1046 16.7893 12.4537 17.1559 12.5236C18.2597 12.7327 19.112 13.563 19.328 14.6394V14.6401C19.3895 14.95 19.6702 15.1752 19.9935 15.1752C20.0368 15.1752 20.0802 15.1714 20.1243 15.1637C20.491 15.0922 20.7322 14.7439 20.6605 14.3857C20.338 12.7781 19.0647 11.5365 17.4145 11.2236Z" fill="#FFFDF3"/>
        <path d="M17.3652 8.54477C17.1886 8.52016 17.0112 8.57091 16.8701 8.68008C16.725 8.79078 16.6343 8.95069 16.6146 9.12983C16.5728 9.49193 16.8417 9.81944 17.2138 9.86019C19.7801 10.1385 21.7749 12.0813 22.0634 14.5829C22.102 14.9181 22.3914 15.1711 22.7367 15.1711C22.7627 15.1711 22.788 15.1695 22.814 15.1665C22.9945 15.1472 23.1554 15.0604 23.2689 14.922C23.3817 14.7836 23.4329 14.6114 23.4124 14.4353C23.0529 11.314 20.567 8.8915 17.3652 8.54477Z" fill="#FFFDF3"/>
    </g>
    <path fill-rule="evenodd" clip-rule="evenodd" d="M14.7334 16.9801C17.8914 20.0481 18.6078 16.4987 20.6186 18.4513C22.5571 20.3346 23.6712 20.7119 21.2151 23.098C20.9075 23.3383 18.9529 26.2289 12.0836 19.5552C5.21341 12.8808 8.18617 10.9793 8.43348 10.6804C10.8955 8.28773 11.2771 9.37675 13.2156 11.26C15.2263 13.2135 11.5754 13.912 14.7334 16.9801Z" fill="#FFFDF3"/>
</svg>
