<svg width="18" height="19" viewBox="0 0 18 19" fill="none" xmlns="http://www.w3.org/2000/svg">
    <path fill-rule="evenodd" clip-rule="evenodd" d="M9 0C4.02944 0 0 4.02944 0 9C0 13.9706 4.02944 18 9 18C13.9706 18 18 13.9706 18 9C18 4.02944 13.9706 0 9 0ZM6.29531 4.4999C6.32194 4.52103 6.34307 4.52103 6.36419 4.51827C6.47348 4.50909 6.56715 4.53572 6.62777 4.63582C6.63847 4.65318 6.64918 4.67054 6.65989 4.6879C6.78519 4.89098 6.91072 5.09444 7.03002 5.30257C7.11638 5.45304 7.19877 5.60597 7.28124 5.75904C7.34172 5.87129 7.40225 5.98362 7.46441 6.09513C7.48848 6.14033 7.51855 6.1829 7.54862 6.22548C7.5656 6.24953 7.58259 6.27357 7.5985 6.2981C7.63683 6.35909 7.67352 6.42173 7.70933 6.48289L7.71513 6.49279C7.79227 6.63882 7.7886 6.78576 7.6738 6.90239C7.55296 7.02595 7.42308 7.14298 7.29345 7.2598C7.24772 7.30101 7.20202 7.34219 7.15675 7.38362C7.10048 7.43527 7.04337 7.48609 6.9863 7.53688C6.8962 7.61705 6.80618 7.69716 6.7196 7.78037C6.6094 7.8869 6.58093 8.02006 6.65532 8.16058C6.66221 8.17347 6.66909 8.18637 6.67598 8.19927C6.78383 8.40126 6.89154 8.603 7.00981 8.80069C7.47635 9.57856 8.07238 10.2398 8.82546 10.7495C9.11566 10.947 9.41781 11.1279 9.72272 11.3005C10.0102 11.4631 10.1222 11.4355 10.3454 11.1866C10.4632 11.0557 10.5787 10.9237 10.6944 10.7914C10.7824 10.6908 10.8705 10.59 10.9598 10.4896C11.0094 10.4336 11.0691 10.384 11.1269 10.3362C11.2445 10.237 11.373 10.226 11.5081 10.294C11.5165 10.2981 11.5251 10.3021 11.5337 10.3062C11.5635 10.3202 11.5935 10.3342 11.6192 10.3528C11.8587 10.5241 12.117 10.6617 12.3751 10.7992C12.5029 10.8673 12.6307 10.9354 12.7561 11.0076C12.8854 11.0818 13.0124 11.1595 13.1391 11.2369C13.2113 11.2811 13.2835 11.3251 13.3558 11.3685C13.4633 11.4319 13.5065 11.5246 13.4991 11.6523C13.4789 12.0114 13.4192 12.364 13.2107 12.6671C13.1235 12.7929 12.9995 12.9031 12.8746 12.9922C12.5284 13.2346 12.1417 13.3843 11.7303 13.4762C11.3565 13.5598 10.9837 13.5294 10.6255 13.4174C9.93394 13.2043 9.2525 12.96 8.62525 12.5899C8.05585 12.2529 7.53788 11.846 7.05849 11.3914C6.45144 10.8138 5.90959 10.1838 5.47152 9.46652C5.1859 9.0009 4.98202 8.49946 4.79743 7.98792C4.68539 7.67934 4.57518 7.37352 4.52559 7.04658C4.46865 6.67647 4.50814 6.32014 4.62661 5.96932C4.73314 5.65247 4.86631 5.34941 5.06743 5.07848C5.22539 4.86817 5.42285 4.71389 5.67816 4.64501C5.82242 4.60684 5.96759 4.57414 6.11271 4.54145C6.17361 4.52773 6.2345 4.51402 6.29531 4.4999Z" fill="#181200"/>
</svg>
