<svg width="49" height="72" viewBox="0 0 49 72" fill="none" xmlns="http://www.w3.org/2000/svg">
<path fill-rule="evenodd" clip-rule="evenodd" d="M12.3001 3.12048C19.9096 -1.10834 29.2629 -1.03443 36.801 3.3141C44.265 7.75119 48.8015 15.6701 48.7592 24.1886C48.5855 32.6513 43.7211 40.6062 37.6407 46.7557C34.1313 50.321 30.2053 53.4736 25.9431 56.1492C25.5042 56.392 25.0234 56.5545 24.5244 56.6288C24.0441 56.6092 23.5765 56.4735 23.1635 56.2338C16.6564 52.2136 10.9477 47.0819 6.31206 41.0857C2.43307 36.0804 0.229291 30.0333 4.05264e-06 23.7655C-0.00503562 15.2306 4.69057 7.34931 12.3001 3.12048ZM16.6972 27.2978C17.9772 30.3159 20.9985 32.2846 24.3505 32.2847C26.5464 32.2997 28.6573 31.4585 30.2128 29.9483C31.7684 28.4381 32.6393 26.3846 32.6315 24.2451C32.6432 20.9795 30.633 18.0291 27.5396 16.7715C24.4462 15.5138 20.8796 16.1971 18.5053 18.5022C16.131 20.8073 15.4172 24.2796 16.6972 27.2978Z" fill="url(#paint0_linear)"/>
<ellipse opacity="0.4" cx="25.0128" cy="68.7088" rx="11.5294" ry="2.40802" fill="url(#paint1_linear)"/>
<defs>
<linearGradient id="paint0_linear" x1="24.3798" y1="0" x2="24.3798" y2="56.6288" gradientUnits="userSpaceOnUse">
<stop offset="0.0001" stop-color="#0070CB"/>
<stop offset="0.583152" stop-color="#0D91D8"/>
<stop offset="1" stop-color="#43A7E0"/>
</linearGradient>
<linearGradient id="paint1_linear" x1="25.0128" y1="66.3008" x2="25.0128" y2="71.1168" gradientUnits="userSpaceOnUse">
<stop offset="0.0001" stop-color="#0070CB"/>
<stop offset="0.583152" stop-color="#0D91D8"/>
<stop offset="1" stop-color="#43A7E0"/>
</linearGradient>
</defs>
</svg>
