<svg width="18" height="18" viewBox="0 0 18 18" fill="none" xmlns="http://www.w3.org/2000/svg">
    <path fill-rule="evenodd" clip-rule="evenodd" d="M0 9C0 13.9706 4.02944 18 9 18C13.9706 18 18 13.9706 18 9C18 4.02944 13.9706 0 9 0C4.02944 0 0 4.02944 0 9ZM9.01035 14.4001C9.01035 14.4001 6.59434 10.7868 5.7391 8.77798C5.52156 8.30975 5.4 7.78701 5.4 7.2356C5.4 5.22777 7.01178 3.6001 9 3.6001C10.9882 3.6001 12.6 5.22777 12.6 7.2356C12.6 7.67744 12.522 8.10086 12.379 8.49258H12.3829C11.8097 10.0167 9.01035 14.4001 9.01035 14.4001Z" fill="#181200"/>
    <path d="M8.9999 9.29961C10.1597 9.29961 11.0999 8.35941 11.0999 7.19961C11.0999 6.03981 10.1597 5.09961 8.9999 5.09961C7.8401 5.09961 6.8999 6.03981 6.8999 7.19961C6.8999 8.35941 7.8401 9.29961 8.9999 9.29961Z" fill="#181200"/>
</svg>
