<svg width="18" height="10" viewBox="0 0 18 10" fill="none" xmlns="http://www.w3.org/2000/svg">
    <path d="M-1.31409e-07 1.50315C-1.64903e-07 1.88627 0.155634 2.2714 0.466907 2.56425L7.86497 9.55871C8.16558 9.84154 8.5728 10 8.9992 10C9.42347 10 9.83068 9.84154 10.1313 9.55871L17.5336 2.56425C18.1562 1.97653 18.1562 1.02575 17.5294 0.438034C16.9025 -0.147679 15.8898 -0.145673 15.2673 0.442046L8.9992 6.36537L2.7311 0.442045C2.10855 -0.145675 1.09798 -0.147681 0.471174 0.438033C0.155636 0.730889 -9.77407e-08 1.11802 -1.31409e-07 1.50315Z" fill="url(#paint0_linear)" fill-opacity="0.4"/>
    <defs>
        <linearGradient id="paint0_linear" x1="9" y1="-7.86805e-07" x2="9" y2="10" gradientUnits="userSpaceOnUse">
            <stop offset="0.0001" stop-color="#0070CB"/>
            <stop offset="0.583152" stop-color="#0D91D8"/>
            <stop offset="1" stop-color="#43A7E0"/>
        </linearGradient>
    </defs>
</svg>
