<svg width="32" height="32" viewBox="0 0 32 32" fill="none" xmlns="http://www.w3.org/2000/svg">
    <circle cx="16" cy="16" r="16" fill="white"/>
    <path opacity="0.4" d="M24.4166 19.263C24.4166 21.4094 22.6433 23.1481 20.4345 23.1558H20.4266H12.5812C10.3803 23.1558 8.58325 21.4248 8.58325 19.2784V19.2707C8.58325 19.2707 8.588 15.8656 8.59434 14.1531C8.59513 13.8315 8.97513 13.6515 9.234 13.8515C11.115 15.3017 14.4788 17.9459 14.5208 17.9805C15.0828 18.4183 15.7953 18.6652 16.5237 18.6652C17.252 18.6652 17.9645 18.4183 18.5266 17.9721C18.5685 17.9451 21.8571 15.3802 23.7666 13.9062C24.0263 13.7054 24.4079 13.8854 24.4087 14.2062C24.4166 15.9056 24.4166 19.263 24.4166 19.263Z" fill="url(#paint0_linear)"/>
    <path d="M24.0019 11.3648C23.3164 10.1093 21.9674 9.30762 20.4822 9.30762H12.5814C11.0962 9.30762 9.74719 10.1093 9.06161 11.3648C8.90803 11.6456 8.98086 11.9957 9.23657 12.1941L15.1147 16.7632C15.5264 17.0863 16.0251 17.2471 16.5239 17.2471C16.527 17.2471 16.5294 17.2471 16.5318 17.2471C16.5342 17.2471 16.5373 17.2471 16.5397 17.2471C17.0384 17.2471 17.5372 17.0863 17.9489 16.7632L23.827 12.1941C24.0827 11.9957 24.1555 11.6456 24.0019 11.3648Z" fill="url(#paint1_linear)"/>
    <defs>
        <linearGradient id="paint0_linear" x1="16.4999" y1="13.7676" x2="16.4999" y2="23.1558" gradientUnits="userSpaceOnUse">
            <stop offset="0.0001" stop-color="#0070CB"/>
            <stop offset="0.583152" stop-color="#0D91D8"/>
            <stop offset="1" stop-color="#43A7E0"/>
        </linearGradient>
        <linearGradient id="paint1_linear" x1="16.5318" y1="9.30762" x2="16.5318" y2="17.2471" gradientUnits="userSpaceOnUse">
            <stop offset="0.0001" stop-color="#0070CB"/>
            <stop offset="0.583152" stop-color="#0D91D8"/>
            <stop offset="1" stop-color="#43A7E0"/>
        </linearGradient>
    </defs>
</svg>
