<svg width="32" height="32" viewBox="0 0 32 32" fill="none" xmlns="http://www.w3.org/2000/svg">
<circle cx="16" cy="16" r="16" fill="white"/>
<g opacity="0.4">
<path d="M17.4145 11.2236C17.0377 11.1559 16.6916 11.3896 16.6198 11.7471C16.5481 12.1046 16.7893 12.4537 17.1559 12.5236C18.2597 12.7327 19.112 13.563 19.328 14.6394V14.6401C19.3895 14.95 19.6702 15.1752 19.9935 15.1752C20.0368 15.1752 20.0802 15.1714 20.1243 15.1637C20.491 15.0922 20.7322 14.7439 20.6605 14.3857C20.338 12.7781 19.0647 11.5365 17.4145 11.2236Z" fill="url(#paint0_linear)"/>
<path d="M17.3652 8.54467C17.1886 8.52007 17.0112 8.57081 16.8701 8.67998C16.725 8.79069 16.6343 8.9506 16.6146 9.12973C16.5728 9.49184 16.8417 9.81935 17.2138 9.8601C19.7801 10.1384 21.7749 12.0812 22.0634 14.5829C22.102 14.9181 22.3914 15.171 22.7367 15.171C22.7627 15.171 22.788 15.1695 22.814 15.1664C22.9945 15.1472 23.1554 15.0603 23.2689 14.9219C23.3817 14.7835 23.4329 14.6113 23.4124 14.4352C23.0529 11.3139 20.567 8.89141 17.3652 8.54467Z" fill="url(#paint1_linear)"/>
</g>
<path fill-rule="evenodd" clip-rule="evenodd" d="M14.7334 16.9802C17.8914 20.0482 18.6078 16.4988 20.6186 18.4515C22.5571 20.3347 23.6712 20.7121 21.2151 23.0982C20.9075 23.3384 18.9529 26.229 12.0836 19.5553C5.21341 12.8809 8.18617 10.9794 8.43348 10.6806C10.8955 8.28785 11.2771 9.37687 13.2156 11.2602C15.2263 13.2136 11.5754 13.9121 14.7334 16.9802Z" fill="url(#paint2_linear)"/>
<defs>
<linearGradient id="paint0_linear" x1="18.6401" y1="11.2119" x2="18.6401" y2="15.1752" gradientUnits="userSpaceOnUse">
<stop offset="0.0001" stop-color="#0070CB"/>
<stop offset="0.583152" stop-color="#0D91D8"/>
<stop offset="1" stop-color="#43A7E0"/>
</linearGradient>
<linearGradient id="paint1_linear" x1="20.0136" y1="8.53857" x2="20.0136" y2="15.171" gradientUnits="userSpaceOnUse">
<stop offset="0.0001" stop-color="#0070CB"/>
<stop offset="0.583152" stop-color="#0D91D8"/>
<stop offset="1" stop-color="#43A7E0"/>
</linearGradient>
<linearGradient id="paint2_linear" x1="15.1041" y1="9.30811" x2="15.1041" y2="23.9254" gradientUnits="userSpaceOnUse">
<stop offset="0.0001" stop-color="#0070CB"/>
<stop offset="0.583152" stop-color="#0D91D8"/>
<stop offset="1" stop-color="#43A7E0"/>
</linearGradient>
</defs>
</svg>
