<?xml version="1.0" encoding="utf-8"?><svg viewBox="0 0 49 72" xmlns="http://www.w3.org/2000/svg" xmlns:xlink="http://www.w3.org/1999/xlink"><style>:root>svg{display:none}:root>svg:target{display:block}</style><svg fill="none" viewBox="0 0 19 19" id="calling" xmlns="http://www.w3.org/2000/svg"><g opacity=".4" fill="#464131"><path d="M11.415 4.224a.675.675 0 00-.795.523.664.664 0 00.536.777c1.104.209 1.956 1.039 2.172 2.115v.001a.675.675 0 00.797.524.666.666 0 00.536-.778c-.323-1.608-1.596-2.85-3.246-3.162z"/><path d="M11.365 1.545a.66.66 0 00-.495.135.651.651 0 00-.255.45.666.666 0 00.599.73c2.566.279 4.56 2.221 4.85 4.723a.672.672 0 00.75.583.676.676 0 00.455-.244.645.645 0 00.143-.487c-.36-3.121-2.845-5.543-6.047-5.89z"/></g><path fill-rule="evenodd" clip-rule="evenodd" d="M8.733 9.98c3.158 3.068 3.875-.481 5.885 1.471 1.939 1.884 3.053 2.26.597 4.647-.308.24-2.262 3.13-9.132-3.543-6.87-6.674-3.897-8.576-3.65-8.875 2.462-2.392 2.844-1.303 4.782.58 2.011 1.953-1.64 2.652 1.518 5.72z" fill="#464131"/></svg><svg fill="none" viewBox="0 0 12 10" id="check" xmlns="http://www.w3.org/2000/svg"><path d="M11.077.91L3.969 9.09.923 6.023" stroke="url(#bpaint0_linear)" stroke-width="1.5" stroke-linecap="round" stroke-linejoin="round"/><defs><linearGradient id="bpaint0_linear" x1="-.084" y1="5.05" x2="9.945" y2="5.425" gradientUnits="userSpaceOnUse"><stop stop-color="#FFD129"/><stop offset="1" stop-color="#F5C000"/></linearGradient></defs></svg><svg fill="none" viewBox="0 0 20 20" id="clock" xmlns="http://www.w3.org/2000/svg"><circle cx="10" cy="10" r="10" fill="url(#cpaint0_linear)"/><path d="M4.546 10a5.455 5.455 0 1010.91 0 5.455 5.455 0 00-10.91 0zm4.909-2.727a.546.546 0 011.09 0v2.181h1.637a.546.546 0 010 1.091H10A.546.546 0 019.455 10V7.273z" fill="#fff"/><defs><linearGradient id="cpaint0_linear" x1="10" y1="0" x2="10" y2="20" gradientUnits="userSpaceOnUse"><stop offset="0" stop-color="#0070CB"/><stop offset=".583" stop-color="#0D91D8"/><stop offset="1" stop-color="#43A7E0"/></linearGradient></defs></svg><svg fill="none" viewBox="0 0 15 15" id="in" xmlns="http://www.w3.org/2000/svg"><path d="M10.94 0H4.06A4.065 4.065 0 000 4.06v6.88A4.065 4.065 0 004.06 15h6.88A4.065 4.065 0 0015 10.94V4.06A4.065 4.065 0 0010.94 0zM7.5 11.601A4.106 4.106 0 013.399 7.5 4.106 4.106 0 017.5 3.399 4.106 4.106 0 0111.601 7.5 4.106 4.106 0 017.5 11.601zm4.2-7.235a1.213 1.213 0 010-2.424c.668 0 1.212.544 1.212 1.212 0 .668-.544 1.212-1.213 1.212z" fill="#464131"/><path opacity=".4" d="M7.5 4.278A3.226 3.226 0 004.278 7.5 3.226 3.226 0 007.5 10.722 3.226 3.226 0 0010.723 7.5 3.226 3.226 0 007.5 4.278zM11.7 2.822a.333.333 0 100 .666.333.333 0 000-.666z" fill="#464131"/></svg><svg fill="none" viewBox="0 0 20 20" id="in_filled" xmlns="http://www.w3.org/2000/svg"><path fill-rule="evenodd" clip-rule="evenodd" d="M10 0C4.477 0 0 4.477 0 10s4.477 10 10 10 10-4.477 10-10S15.523 0 10 0zM7.801 4.699c.57-.026.751-.032 2.2-.032h-.002c1.449 0 1.63.006 2.199.032.568.026.955.116 1.295.248.351.136.648.318.945.615.296.296.479.594.615.944.131.34.221.727.248 1.295.026.569.032.75.032 2.199 0 1.448-.006 1.63-.032 2.199-.027.567-.117.955-.248 1.294-.136.35-.319.648-.615.945-.296.296-.594.48-.944.615-.34.132-.728.222-1.295.248-.57.026-.75.032-2.2.032-1.447 0-1.63-.006-2.198-.032-.568-.026-.955-.116-1.295-.248a2.611 2.611 0 01-.944-.615 2.613 2.613 0 01-.615-.945c-.132-.34-.222-.727-.248-1.295-.026-.568-.032-.75-.032-2.198 0-1.449.006-1.63.032-2.2.025-.567.115-.955.248-1.294.136-.35.319-.648.615-.944.297-.297.594-.48.945-.615.34-.132.727-.222 1.294-.248z" fill="url(#epaint0_linear)"/><path fill-rule="evenodd" clip-rule="evenodd" d="M9.522 5.628H10c1.424 0 1.593.005 2.155.03.52.024.803.111.99.184.25.097.427.212.614.399.186.187.302.364.399.613.073.188.16.47.183.99.026.563.031.731.031 2.155 0 1.423-.005 1.592-.03 2.154-.024.52-.111.803-.184.99a1.65 1.65 0 01-.4.613 1.65 1.65 0 01-.612.399c-.188.073-.47.16-.99.184-.563.025-.732.03-2.156.03-1.424 0-1.593-.005-2.155-.03-.52-.024-.802-.111-.99-.184a1.653 1.653 0 01-.614-.4 1.653 1.653 0 01-.399-.612c-.073-.188-.16-.47-.183-.99-.026-.562-.031-.731-.031-2.155 0-1.425.005-1.593.03-2.155.024-.52.111-.802.184-.99.097-.25.213-.427.4-.614.186-.186.364-.302.613-.399.188-.073.47-.16.99-.184.492-.022.683-.028 1.677-.03v.002zm3.325.885a.64.64 0 100 1.28.64.64 0 000-1.28zM7.261 10a2.739 2.739 0 115.478 0 2.739 2.739 0 01-5.478 0z" fill="url(#epaint1_linear)"/><path d="M10 8.222a1.778 1.778 0 110 3.556 1.778 1.778 0 010-3.556z" fill="url(#epaint2_linear)"/><defs><linearGradient id="epaint0_linear" x1="10" y1="0" x2="10" y2="20" gradientUnits="userSpaceOnUse"><stop offset="0" stop-color="#0070CB"/><stop offset=".583" stop-color="#0D91D8"/><stop offset="1" stop-color="#43A7E0"/></linearGradient><linearGradient id="epaint1_linear" x1="10" y1="5.626" x2="10" y2="14.37" gradientUnits="userSpaceOnUse"><stop offset="0" stop-color="#0070CB"/><stop offset=".583" stop-color="#0D91D8"/><stop offset="1" stop-color="#43A7E0"/></linearGradient><linearGradient id="epaint2_linear" x1="10.001" y1="8.222" x2="10.001" y2="11.778" gradientUnits="userSpaceOnUse"><stop offset="0" stop-color="#0070CB"/><stop offset=".583" stop-color="#0D91D8"/><stop offset="1" stop-color="#43A7E0"/></linearGradient></defs></svg><svg fill="none" viewBox="0 0 16 16" id="left" xmlns="http://www.w3.org/2000/svg"><path d="M5.164 2.827a.54.54 0 00-.054.715l.054.061L9.649 8l-4.485 4.397a.54.54 0 00-.054.714l.054.062c.199.194.51.212.729.053l.062-.053 4.881-4.785a.54.54 0 00.054-.714l-.054-.062-4.88-4.785a.568.568 0 00-.792 0z" fill="#fff"/></svg><svg fill="none" viewBox="0 0 20 20" id="letter" xmlns="http://www.w3.org/2000/svg"><path fill-rule="evenodd" clip-rule="evenodd" d="M10 20C4.477 20 0 15.523 0 10S4.477 0 10 0s10 4.477 10 10-4.477 10-10 10zm.14-10.561c.818 0 4.8-2.239 4.8-2.239l.006-.4a.8.8 0 00-.801-.8h-8.01a.8.8 0 00-.802.8v.356S9.358 9.44 10.14 9.44zM5.34 8.4s4.018 2.139 4.8 2.139c.856 0 4.8-2.139 4.8-2.139l.006 4.8a.8.8 0 01-.801.8h-8.01a.8.8 0 01-.802-.8l.007-4.8z" fill="url(#gpaint0_linear)"/><defs><linearGradient id="gpaint0_linear" x1="10" y1="0" x2="10" y2="20" gradientUnits="userSpaceOnUse"><stop offset="0" stop-color="#0070CB"/><stop offset=".583" stop-color="#0D91D8"/><stop offset="1" stop-color="#43A7E0"/></linearGradient></defs></svg><svg fill="none" viewBox="0 0 19 20" id="location" xmlns="http://www.w3.org/2000/svg"><path fill-rule="evenodd" clip-rule="evenodd" d="M6.754 3.013a5.59 5.59 0 015.57.045 5.604 5.604 0 012.717 4.82c-.04 1.955-1.145 3.792-2.527 5.213a14.731 14.731 0 01-2.659 2.169.946.946 0 01-.322.11.662.662 0 01-.31-.09 14.496 14.496 0 01-3.83-3.499 7.011 7.011 0 01-1.435-4 5.476 5.476 0 012.796-4.768zm1 5.584a1.883 1.883 0 001.739 1.151c.5.004.979-.19 1.333-.54a1.863 1.863 0 00-.608-3.043 1.896 1.896 0 00-2.054.4 1.85 1.85 0 00-.41 2.032z" fill="#464131"/><ellipse opacity=".4" cx="9.499" cy="16.909" rx="3.958" ry=".769" fill="#464131"/></svg><svg fill="none" viewBox="0 0 19 19" id="message" xmlns="http://www.w3.org/2000/svg"><path opacity=".4" d="M17.416 12.355c0 2.146-1.773 3.885-3.982 3.892H5.581c-2.2 0-3.998-1.73-3.998-3.877v-.008s.005-3.405.011-5.117c0-.322.38-.502.64-.302a856.55 856.55 0 015.287 4.13 3.279 3.279 0 002.002.684c.729 0 1.441-.247 2.003-.693.042-.027 3.33-2.592 5.24-4.066.26-.201.642-.02.642.3.008 1.7.008 5.057.008 5.057z" fill="#464131"/><path d="M17.002 4.456c-.686-1.255-2.035-2.057-3.52-2.057h-7.9c-1.486 0-2.835.802-3.52 2.057-.154.281-.081.631.174.83l5.878 4.569c.412.323.91.483 1.41.483h.015c.5 0 .998-.16 1.41-.483l5.878-4.57a.652.652 0 00.175-.829z" fill="#464131"/></svg><svg fill="none" viewBox="0 0 20 20" id="phone" xmlns="http://www.w3.org/2000/svg"><circle cx="10" cy="10" r="10" fill="url(#jpaint0_linear)"/><path d="M11.21 6.745a.431.431 0 00-.163.845 1.73 1.73 0 011.37 1.375.43.43 0 00.504.34.432.432 0 00.338-.505 2.587 2.587 0 00-2.05-2.055z" fill="#fff"/><path d="M11.178 5.004a.426.426 0 00-.474.38.43.43 0 00.378.475 3.456 3.456 0 013.063 3.07.429.429 0 10.852-.097 4.308 4.308 0 00-3.819-3.828z" fill="#fff"/><path fill-rule="evenodd" clip-rule="evenodd" d="M9.516 10.486c1.994 1.994 2.447-.313 3.717.956 1.224 1.224 1.928 1.47.377 3.02-.195.156-1.43 2.035-5.768-2.302-4.339-4.338-2.461-5.574-2.305-5.768 1.555-1.555 1.796-.847 3.02.377 1.27 1.27-1.036 1.723.959 3.717z" fill="#fff"/><defs><linearGradient id="jpaint0_linear" x1="10" y1="0" x2="10" y2="20" gradientUnits="userSpaceOnUse"><stop offset="0" stop-color="#0070CB"/><stop offset=".583" stop-color="#0D91D8"/><stop offset="1" stop-color="#43A7E0"/></linearGradient></defs></svg><svg fill="none" viewBox="0 0 49 72" id="pin" xmlns="http://www.w3.org/2000/svg"><path fill-rule="evenodd" clip-rule="evenodd" d="M12.3 3.12c7.61-4.228 16.963-4.154 24.501.194 7.464 4.437 12 12.356 11.958 20.875-.173 8.462-5.038 16.417-11.118 22.567a64.613 64.613 0 01-11.698 9.393c-.439.243-.92.405-1.419.48a2.952 2.952 0 01-1.36-.395A63.416 63.416 0 016.311 41.086C2.433 36.08.23 30.033 0 23.766-.005 15.23 4.69 7.348 12.3 3.12zm4.397 24.178c1.28 3.018 4.302 4.987 7.654 4.987a8.336 8.336 0 005.862-2.337 7.908 7.908 0 002.419-5.703c.011-3.265-1.999-6.216-5.092-7.474-3.094-1.257-6.66-.574-9.035 1.731-2.374 2.305-3.088 5.778-1.808 8.796z" fill="url(#kpaint0_linear)"/><ellipse opacity=".4" cx="25.013" cy="68.709" rx="11.529" ry="2.408" fill="url(#kpaint1_linear)"/><defs><linearGradient id="kpaint0_linear" x1="24.38" y1="0" x2="24.38" y2="56.629" gradientUnits="userSpaceOnUse"><stop offset="0" stop-color="#0070CB"/><stop offset=".583" stop-color="#0D91D8"/><stop offset="1" stop-color="#43A7E0"/></linearGradient><linearGradient id="kpaint1_linear" x1="25.013" y1="66.301" x2="25.013" y2="71.117" gradientUnits="userSpaceOnUse"><stop offset="0" stop-color="#0070CB"/><stop offset=".583" stop-color="#0D91D8"/><stop offset="1" stop-color="#43A7E0"/></linearGradient></defs></svg><svg fill="none" viewBox="0 0 20 20" id="place" xmlns="http://www.w3.org/2000/svg"><path fill-rule="evenodd" clip-rule="evenodd" d="M0 10c0 5.523 4.477 10 10 10s10-4.477 10-10S15.523 0 10 0 0 4.477 0 10zm10.011 6s-2.684-4.015-3.634-6.247A4.057 4.057 0 016 8.04C6 5.809 7.79 4 10 4s4 1.809 4 4.04c0 .49-.087.961-.245 1.396h.004C13.122 11.13 10.01 16 10.01 16z" fill="url(#lpaint0_linear)"/><path d="M10 10.333a2.333 2.333 0 100-4.667 2.333 2.333 0 000 4.667z" fill="url(#lpaint1_linear)"/><defs><linearGradient id="lpaint0_linear" x1="10" y1="0" x2="10" y2="20" gradientUnits="userSpaceOnUse"><stop offset="0" stop-color="#0070CB"/><stop offset=".583" stop-color="#0D91D8"/><stop offset="1" stop-color="#43A7E0"/></linearGradient><linearGradient id="lpaint1_linear" x1="10" y1="5.666" x2="10" y2="10.333" gradientUnits="userSpaceOnUse"><stop offset="0" stop-color="#0070CB"/><stop offset=".583" stop-color="#0D91D8"/><stop offset="1" stop-color="#43A7E0"/></linearGradient></defs></svg></svg>